<svg xmlns="http://www.w3.org/2000/svg" id="Android" width="166" height="166" viewBox="0 0 166 166">
    <defs>
        <style>
            .cls-2{fill:#0ec1eb}
        </style>
    </defs>
    <path id="Rectangle_21362" fill="#f2f0f0" d="M0 0H166V166H0z"/>
    <path id="Rectangle_21363" d="M0 0H6V6H0z" class="cls-2" transform="translate(10 10)"/>
    <path id="Rectangle_21364" d="M0 0H6V6H0z" class="cls-2" transform="translate(16 10)"/>
    <path id="Rectangle_21365" d="M0 0H5V6H0z" class="cls-2" transform="translate(22 10)"/>
    <path id="Rectangle_21366" d="M0 0H7V6H0z" class="cls-2" transform="translate(26.665 10)"/>
    <path id="Rectangle_21367" d="M0 0H5V6H0z" class="cls-2" transform="translate(33.583 10)"/>
    <path id="Rectangle_21368" d="M0 0H7V6H0z" class="cls-2" transform="translate(38.516 10)"/>
    <path id="Rectangle_21369" d="M0 0H5V6H0z" class="cls-2" transform="translate(45.436 10)"/>
    <path id="Rectangle_21370" d="M0 0H6V6H0z" class="cls-2" transform="translate(62.222 10)"/>
    <path id="Rectangle_21371" d="M0 0H6V6H0z" class="cls-2" transform="translate(68.148 10)"/>
    <path id="Rectangle_21372" d="M0 0H5V6H0z" class="cls-2" transform="translate(74.08 10)"/>
    <path id="Rectangle_21373" d="M0 0H6V6H0z" class="cls-2" transform="translate(90.864 10)"/>
    <path id="Rectangle_21374" d="M0 0H6V6H0z" class="cls-2" transform="translate(102.716 10)"/>
    <path id="Rectangle_21375" d="M0 0H7V6H0z" class="cls-2" transform="translate(113.571 10)"/>
    <path id="Rectangle_21376" d="M0 0H5V6H0z" class="cls-2" transform="translate(120.503 10)"/>
    <path id="Rectangle_21377" d="M0 0H7V6H0z" class="cls-2" transform="translate(125.422 10)"/>
    <path id="Rectangle_21378" d="M0 0H5V6H0z" class="cls-2" transform="translate(132.356 10)"/>
    <path id="Rectangle_21379" d="M0 0H6V6H0z" class="cls-2" transform="translate(137 10)"/>
    <path id="Rectangle_21380" d="M0 0H6V6H0z" class="cls-2" transform="translate(143 10)"/>
    <path id="Rectangle_21381" d="M0 0H6V6H0z" class="cls-2" transform="translate(149 10)"/>
    <path id="Rectangle_21382" d="M0 0H6V6H0z" class="cls-2" transform="translate(10 16)"/>
    <path id="Rectangle_21383" d="M0 0H5V6H0z" class="cls-2" transform="translate(45.436 16)"/>
    <path id="Rectangle_21384" d="M0 0H5V6H0z" class="cls-2" transform="translate(74.08 16)"/>
    <path id="Rectangle_21385" d="M0 0H6V6H0z" class="cls-2" transform="translate(79.012 16)"/>
    <path id="Rectangle_21386" d="M0 0H6V6H0z" class="cls-2" transform="translate(84.938 16)"/>
    <path id="Rectangle_21387" d="M0 0H6V6H0z" class="cls-2" transform="translate(90.864 16)"/>
    <path id="Rectangle_21388" d="M0 0H6V6H0z" class="cls-2" transform="translate(102.716 16)"/>
    <path id="Rectangle_21389" d="M0 0H7V6H0z" class="cls-2" transform="translate(113.571 16)"/>
    <path id="Rectangle_21390" d="M0 0H6V6H0z" class="cls-2" transform="translate(149 16)"/>
    <path id="Rectangle_21391" d="M0 0H6V5H0z" class="cls-2" transform="translate(10 22)"/>
    <path id="Rectangle_21392" d="M0 0H5V5H0z" class="cls-2" transform="translate(22 22)"/>
    <path id="Rectangle_21393" d="M0 0H7V5H0z" class="cls-2" transform="translate(26.665 22)"/>
    <path id="Rectangle_21394" d="M0 0H5V5H0z" class="cls-2" transform="translate(33.583 22)"/>
    <path id="Rectangle_21395" d="M0 0H5V5H0z" class="cls-2" transform="translate(45.436 22)"/>
    <path id="Rectangle_21396" d="M0 0H6V5H0z" class="cls-2" transform="translate(62.222 22)"/>
    <path id="Rectangle_21397" d="M0 0H6V5H0z" class="cls-2" transform="translate(68.148 22)"/>
    <path id="Rectangle_21398" d="M0 0H5V5H0z" class="cls-2" transform="translate(74.08 22)"/>
    <path id="Rectangle_21399" d="M0 0H6V5H0z" class="cls-2" transform="translate(96.79 22)"/>
    <path id="Rectangle_21400" d="M0 0H6V5H0z" class="cls-2" transform="translate(102.716 22)"/>
    <path id="Rectangle_21401" d="M0 0H7V5H0z" class="cls-2" transform="translate(113.571 22)"/>
    <path id="Rectangle_21402" d="M0 0H7V5H0z" class="cls-2" transform="translate(125.422 22)"/>
    <path id="Rectangle_21403" d="M0 0H5V5H0z" class="cls-2" transform="translate(132.356 22)"/>
    <path id="Rectangle_21404" d="M0 0H6V5H0z" class="cls-2" transform="translate(137 22)"/>
    <path id="Rectangle_21405" d="M0 0H6V5H0z" class="cls-2" transform="translate(149 22)"/>
    <path id="Rectangle_21406" d="M0 0H6V7H0z" class="cls-2" transform="translate(10 26.665)"/>
    <path id="Rectangle_21407" d="M0 0H5V7H0z" class="cls-2" transform="translate(22 26.665)"/>
    <path id="Rectangle_21408" d="M0 0H7V7H0z" class="cls-2" transform="translate(26.665 26.665)"/>
    <path id="Rectangle_21409" d="M0 0H5V7H0z" class="cls-2" transform="translate(33.583 26.665)"/>
    <path id="Rectangle_21410" d="M0 0H5V7H0z" class="cls-2" transform="translate(45.436 26.665)"/>
    <path id="Rectangle_21411" d="M0 0H6V7H0z" class="cls-2" transform="translate(56.296 26.665)"/>
    <path id="Rectangle_21412" d="M0 0H6V7H0z" class="cls-2" transform="translate(68.148 26.665)"/>
    <path id="Rectangle_21413" d="M0 0H5V7H0z" class="cls-2" transform="translate(74.08 26.665)"/>
    <path id="Rectangle_21414" d="M0 0H6V7H0z" class="cls-2" transform="translate(79.012 26.665)"/>
    <path id="Rectangle_21415" d="M0 0H6V7H0z" class="cls-2" transform="translate(84.938 26.665)"/>
    <path id="Rectangle_21416" d="M0 0H6V7H0z" class="cls-2" transform="translate(102.716 26.665)"/>
    <path id="Rectangle_21417" d="M0 0H7V7H0z" class="cls-2" transform="translate(113.571 26.665)"/>
    <path id="Rectangle_21418" d="M0 0H7V7H0z" class="cls-2" transform="translate(125.422 26.665)"/>
    <path id="Rectangle_21419" d="M0 0H5V7H0z" class="cls-2" transform="translate(132.356 26.665)"/>
    <path id="Rectangle_21420" d="M0 0H6V7H0z" class="cls-2" transform="translate(137 26.665)"/>
    <path id="Rectangle_21421" d="M0 0H6V7H0z" class="cls-2" transform="translate(149 26.665)"/>
    <path id="Rectangle_21422" d="M0 0H6V5H0z" class="cls-2" transform="translate(10 33.583)"/>
    <path id="Rectangle_21423" d="M0 0H5V5H0z" class="cls-2" transform="translate(22 33.583)"/>
    <path id="Rectangle_21424" d="M0 0H7V5H0z" class="cls-2" transform="translate(26.665 33.583)"/>
    <path id="Rectangle_21425" d="M0 0H5V5H0z" class="cls-2" transform="translate(33.583 33.583)"/>
    <path id="Rectangle_21426" d="M0 0H5V5H0z" class="cls-2" transform="translate(45.436 33.583)"/>
    <path id="Rectangle_21427" d="M0 0H6V5H0z" class="cls-2" transform="translate(56.296 33.583)"/>
    <path id="Rectangle_21428" d="M0 0H6V5H0z" class="cls-2" transform="translate(68.148 33.583)"/>
    <path id="Rectangle_21429" d="M0 0H6V5H0z" class="cls-2" transform="translate(79.012 33.583)"/>
    <path id="Rectangle_21430" d="M0 0H6V5H0z" class="cls-2" transform="translate(84.938 33.583)"/>
    <path id="Rectangle_21431" d="M0 0H6V5H0z" class="cls-2" transform="translate(102.716 33.583)"/>
    <path id="Rectangle_21432" d="M0 0H7V5H0z" class="cls-2" transform="translate(113.571 33.583)"/>
    <path id="Rectangle_21433" d="M0 0H7V5H0z" class="cls-2" transform="translate(125.422 33.583)"/>
    <path id="Rectangle_21434" d="M0 0H5V5H0z" class="cls-2" transform="translate(132.356 33.583)"/>
    <path id="Rectangle_21435" d="M0 0H6V5H0z" class="cls-2" transform="translate(137 33.583)"/>
    <path id="Rectangle_21436" d="M0 0H6V5H0z" class="cls-2" transform="translate(149 33.583)"/>
    <path id="Rectangle_21437" d="M0 0H6V7H0z" class="cls-2" transform="translate(10 38.516)"/>
    <path id="Rectangle_21438" d="M0 0H5V7H0z" class="cls-2" transform="translate(45.436 38.516)"/>
    <path id="Rectangle_21439" d="M0 0H6V7H0z" class="cls-2" transform="translate(62.222 38.516)"/>
    <path id="Rectangle_21440" d="M0 0H6V7H0z" class="cls-2" transform="translate(68.148 38.516)"/>
    <path id="Rectangle_21441" d="M0 0H6V7H0z" class="cls-2" transform="translate(90.864 38.516)"/>
    <path id="Rectangle_21442" d="M0 0H6V7H0z" class="cls-2" transform="translate(102.716 38.516)"/>
    <path id="Rectangle_21443" d="M0 0H7V7H0z" class="cls-2" transform="translate(113.571 38.516)"/>
    <path id="Rectangle_21444" d="M0 0H6V7H0z" class="cls-2" transform="translate(149 38.516)"/>
    <path id="Rectangle_21445" d="M0 0H6V5H0z" class="cls-2" transform="translate(10 45.436)"/>
    <path id="Rectangle_21446" d="M0 0H6V5H0z" class="cls-2" transform="translate(16 45.436)"/>
    <path id="Rectangle_21447" d="M0 0H5V5H0z" class="cls-2" transform="translate(22 45.436)"/>
    <path id="Rectangle_21448" d="M0 0H7V5H0z" class="cls-2" transform="translate(26.665 45.436)"/>
    <path id="Rectangle_21449" d="M0 0H5V5H0z" class="cls-2" transform="translate(33.583 45.436)"/>
    <path id="Rectangle_21450" d="M0 0H7V5H0z" class="cls-2" transform="translate(38.516 45.436)"/>
    <path id="Rectangle_21451" d="M0 0H5V5H0z" class="cls-2" transform="translate(45.436 45.436)"/>
    <path id="Rectangle_21452" d="M0 0H6V5H0z" class="cls-2" transform="translate(56.296 45.436)"/>
    <path id="Rectangle_21453" d="M0 0H6V5H0z" class="cls-2" transform="translate(68.148 45.436)"/>
    <path id="Rectangle_21454" d="M0 0H6V5H0z" class="cls-2" transform="translate(79.012 45.436)"/>
    <path id="Rectangle_21455" d="M0 0H6V5H0z" class="cls-2" transform="translate(90.864 45.436)"/>
    <path id="Rectangle_21456" d="M0 0H6V5H0z" class="cls-2" transform="translate(102.716 45.436)"/>
    <path id="Rectangle_21457" d="M0 0H7V5H0z" class="cls-2" transform="translate(113.571 45.436)"/>
    <path id="Rectangle_21458" d="M0 0H5V5H0z" class="cls-2" transform="translate(120.503 45.436)"/>
    <path id="Rectangle_21459" d="M0 0H7V5H0z" class="cls-2" transform="translate(125.422 45.436)"/>
    <path id="Rectangle_21460" d="M0 0H5V5H0z" class="cls-2" transform="translate(132.356 45.436)"/>
    <path id="Rectangle_21461" d="M0 0H6V5H0z" class="cls-2" transform="translate(137 45.436)"/>
    <path id="Rectangle_21462" d="M0 0H6V5H0z" class="cls-2" transform="translate(143 45.436)"/>
    <path id="Rectangle_21463" d="M0 0H6V5H0z" class="cls-2" transform="translate(149 45.436)"/>
    <path id="Rectangle_21464" d="M0 0H6V6H0z" class="cls-2" transform="translate(62.222 50.37)"/>
    <path id="Rectangle_21465" d="M0 0H5V6H0z" class="cls-2" transform="translate(74.08 50.37)"/>
    <path id="Rectangle_21466" d="M0 0H6V6H0z" class="cls-2" transform="translate(79.012 50.37)"/>
    <path id="Rectangle_21467" d="M0 0H6V6H0z" class="cls-2" transform="translate(96.79 50.37)"/>
    <path id="Rectangle_21468" d="M0 0H6V6H0z" class="cls-2" transform="translate(102.716 50.37)"/>
    <path id="Rectangle_21469" d="M0 0H6V6H0z" class="cls-2" transform="translate(10 56.296)"/>
    <path id="Rectangle_21470" d="M0 0H6V6H0z" class="cls-2" transform="translate(16 56.296)"/>
    <path id="Rectangle_21471" d="M0 0H7V6H0z" class="cls-2" transform="translate(38.516 56.296)"/>
    <path id="Rectangle_21472" d="M0 0H5V6H0z" class="cls-2" transform="translate(45.436 56.296)"/>
    <path id="Rectangle_21473" d="M0 0H6V6H0z" class="cls-2" transform="translate(50.37 56.296)"/>
    <path id="Rectangle_21474" d="M0 0H6V6H0z" class="cls-2" transform="translate(62.222 56.296)"/>
    <path id="Rectangle_21475" d="M0 0H6V6H0z" class="cls-2" transform="translate(68.148 56.296)"/>
    <path id="Rectangle_21476" d="M0 0H5V6H0z" class="cls-2" transform="translate(74.08 56.296)"/>
    <path id="Rectangle_21477" d="M0 0H6V6H0z" class="cls-2" transform="translate(79.012 56.296)"/>
    <path id="Rectangle_21478" d="M0 0H6V6H0z" class="cls-2" transform="translate(84.938 56.296)"/>
    <path id="Rectangle_21479" d="M0 0H6V6H0z" class="cls-2" transform="translate(90.864 56.296)"/>
    <path id="Rectangle_21480" d="M0 0H6V6H0z" class="cls-2" transform="translate(96.79 56.296)"/>
    <path id="Rectangle_21481" d="M0 0H7V6H0z" class="cls-2" transform="translate(125.422 56.296)"/>
    <path id="Rectangle_21482" d="M0 0H5V6H0z" class="cls-2" transform="translate(132.356 56.296)"/>
    <path id="Rectangle_21483" d="M0 0H6V6H0z" class="cls-2" transform="translate(10 62.222)"/>
    <path id="Rectangle_21484" d="M0 0H5V6H0z" class="cls-2" transform="translate(22 62.222)"/>
    <path id="Rectangle_21485" d="M0 0H5V6H0z" class="cls-2" transform="translate(33.583 62.222)"/>
    <path id="Rectangle_21486" d="M0 0H7V6H0z" class="cls-2" transform="translate(38.516 62.222)"/>
    <path id="Rectangle_21487" d="M0 0H6V6H0z" class="cls-2" transform="translate(50.37 62.222)"/>
    <path id="Rectangle_21488" d="M0 0H6V6H0z" class="cls-2" transform="translate(56.296 62.222)"/>
    <path id="Rectangle_21489" d="M0 0H6V6H0z" class="cls-2" transform="translate(68.148 62.222)"/>
    <path id="Rectangle_21490" d="M0 0H5V6H0z" class="cls-2" transform="translate(74.08 62.222)"/>
    <path id="Rectangle_21491" d="M0 0H6V6H0z" class="cls-2" transform="translate(84.938 62.222)"/>
    <path id="Rectangle_21492" d="M0 0H6V6H0z" class="cls-2" transform="translate(90.864 62.222)"/>
    <path id="Rectangle_21493" d="M0 0H6V6H0z" class="cls-2" transform="translate(96.79 62.222)"/>
    <path id="Rectangle_21494" d="M0 0H5V6H0z" class="cls-2" transform="translate(108.65 62.222)"/>
    <path id="Rectangle_21495" d="M0 0H5V6H0z" class="cls-2" transform="translate(120.503 62.222)"/>
    <path id="Rectangle_21496" d="M0 0H7V6H0z" class="cls-2" transform="translate(125.422 62.222)"/>
    <path id="Rectangle_21497" d="M0 0H5V6H0z" class="cls-2" transform="translate(132.356 62.222)"/>
    <path id="Rectangle_21498" d="M0 0H6V6H0z" class="cls-2" transform="translate(137 62.222)"/>
    <path id="Rectangle_21499" d="M0 0H6V6H0z" class="cls-2" transform="translate(143 62.222)"/>
    <path id="Rectangle_21500" d="M0 0H6V6H0z" class="cls-2" transform="translate(10 68.148)"/>
    <path id="Rectangle_21501" d="M0 0H6V6H0z" class="cls-2" transform="translate(16 68.148)"/>
    <path id="Rectangle_21502" d="M0 0H5V6H0z" class="cls-2" transform="translate(22 68.148)"/>
    <path id="Rectangle_21503" d="M0 0H7V6H0z" class="cls-2" transform="translate(26.665 68.148)"/>
    <path id="Rectangle_21504" d="M0 0H5V6H0z" class="cls-2" transform="translate(33.583 68.148)"/>
    <path id="Rectangle_21505" d="M0 0H5V6H0z" class="cls-2" transform="translate(45.436 68.148)"/>
    <path id="Rectangle_21506" d="M0 0H6V6H0z" class="cls-2" transform="translate(50.37 68.148)"/>
    <path id="Rectangle_21507" d="M0 0H6V6H0z" class="cls-2" transform="translate(56.296 68.148)"/>
    <path id="Rectangle_21508" d="M0 0H6V6H0z" class="cls-2" transform="translate(62.222 68.148)"/>
    <path id="Rectangle_21509" d="M0 0H6V6H0z" class="cls-2" transform="translate(79.012 68.148)"/>
    <path id="Rectangle_21510" d="M0 0H6V6H0z" class="cls-2" transform="translate(96.79 68.148)"/>
    <path id="Rectangle_21511" d="M0 0H6V6H0z" class="cls-2" transform="translate(102.716 68.148)"/>
    <path id="Rectangle_21512" d="M0 0H7V6H0z" class="cls-2" transform="translate(113.571 68.148)"/>
    <path id="Rectangle_21513" d="M0 0H5V6H0z" class="cls-2" transform="translate(120.503 68.148)"/>
    <path id="Rectangle_21514" d="M0 0H5V6H0z" class="cls-2" transform="translate(132.356 68.148)"/>
    <path id="Rectangle_21515" d="M0 0H6V6H0z" class="cls-2" transform="translate(143 68.148)"/>
    <path id="Rectangle_21516" d="M0 0H6V6H0z" class="cls-2" transform="translate(149 68.148)"/>
    <path id="Rectangle_21517" d="M0 0H6V5H0z" class="cls-2" transform="translate(10 74.08)"/>
    <path id="Rectangle_21518" d="M0 0H7V5H0z" class="cls-2" transform="translate(26.665 74.08)"/>
    <path id="Rectangle_21519" d="M0 0H7V5H0z" class="cls-2" transform="translate(38.516 74.08)"/>
    <path id="Rectangle_21520" d="M0 0H6V5H0z" class="cls-2" transform="translate(68.148 74.08)"/>
    <path id="Rectangle_21521" d="M0 0H6V5H0z" class="cls-2" transform="translate(90.864 74.08)"/>
    <path id="Rectangle_21522" d="M0 0H5V5H0z" class="cls-2" transform="translate(132.356 74.08)"/>
    <path id="Rectangle_21523" d="M0 0H6V5H0z" class="cls-2" transform="translate(149 74.08)"/>
    <path id="Rectangle_21524" d="M0 0H7V6H0z" class="cls-2" transform="translate(38.516 79.012)"/>
    <path id="Rectangle_21525" d="M0 0H5V6H0z" class="cls-2" transform="translate(45.436 79.012)"/>
    <path id="Rectangle_21526" d="M0 0H6V6H0z" class="cls-2" transform="translate(62.222 79.012)"/>
    <path id="Rectangle_21527" d="M0 0H6V6H0z" class="cls-2" transform="translate(68.148 79.012)"/>
    <path id="Rectangle_21528" d="M0 0H5V6H0z" class="cls-2" transform="translate(74.08 79.012)"/>
    <path id="Rectangle_21529" d="M0 0H6V6H0z" class="cls-2" transform="translate(79.012 79.012)"/>
    <path id="Rectangle_21530" d="M0 0H6V6H0z" class="cls-2" transform="translate(96.79 79.012)"/>
    <path id="Rectangle_21531" d="M0 0H6V6H0z" class="cls-2" transform="translate(102.716 79.012)"/>
    <path id="Rectangle_21532" d="M0 0H7V6H0z" class="cls-2" transform="translate(113.571 79.012)"/>
    <path id="Rectangle_21533" d="M0 0H6V6H0z" class="cls-2" transform="translate(149 79.012)"/>
    <path id="Rectangle_21534" d="M0 0H6V6H0z" class="cls-2" transform="translate(10 84.938)"/>
    <path id="Rectangle_21535" d="M0 0H5V6H0z" class="cls-2" transform="translate(22 84.938)"/>
    <path id="Rectangle_21536" d="M0 0H6V6H0z" class="cls-2" transform="translate(50.37 84.938)"/>
    <path id="Rectangle_21537" d="M0 0H6V6H0z" class="cls-2" transform="translate(56.296 84.938)"/>
    <path id="Rectangle_21538" d="M0 0H6V6H0z" class="cls-2" transform="translate(62.222 84.938)"/>
    <path id="Rectangle_21539" d="M0 0H6V6H0z" class="cls-2" transform="translate(68.148 84.938)"/>
    <path id="Rectangle_21540" d="M0 0H5V6H0z" class="cls-2" transform="translate(74.08 84.938)"/>
    <path id="Rectangle_21541" d="M0 0H6V6H0z" class="cls-2" transform="translate(84.938 84.938)"/>
    <path id="Rectangle_21542" d="M0 0H6V6H0z" class="cls-2" transform="translate(96.79 84.938)"/>
    <path id="Rectangle_21543" d="M0 0H6V6H0z" class="cls-2" transform="translate(102.716 84.938)"/>
    <path id="Rectangle_21544" d="M0 0H5V6H0z" class="cls-2" transform="translate(120.503 84.938)"/>
    <path id="Rectangle_21545" d="M0 0H6V6H0z" class="cls-2" transform="translate(143 84.938)"/>
    <path id="Rectangle_21546" d="M0 0H6V6H0z" class="cls-2" transform="translate(10 90.864)"/>
    <path id="Rectangle_21547" d="M0 0H7V6H0z" class="cls-2" transform="translate(26.665 90.864)"/>
    <path id="Rectangle_21548" d="M0 0H5V6H0z" class="cls-2" transform="translate(33.583 90.864)"/>
    <path id="Rectangle_21549" d="M0 0H5V6H0z" class="cls-2" transform="translate(45.436 90.864)"/>
    <path id="Rectangle_21550" d="M0 0H6V6H0z" class="cls-2" transform="translate(50.37 90.864)"/>
    <path id="Rectangle_21551" d="M0 0H6V6H0z" class="cls-2" transform="translate(56.296 90.864)"/>
    <path id="Rectangle_21552" d="M0 0H6V6H0z" class="cls-2" transform="translate(62.222 90.864)"/>
    <path id="Rectangle_21553" d="M0 0H6V6H0z" class="cls-2" transform="translate(68.148 90.864)"/>
    <path id="Rectangle_21554" d="M0 0H6V6H0z" class="cls-2" transform="translate(79.012 90.864)"/>
    <path id="Rectangle_21555" d="M0 0H6V6H0z" class="cls-2" transform="translate(84.938 90.864)"/>
    <path id="Rectangle_21556" d="M0 0H6V6H0z" class="cls-2" transform="translate(90.864 90.864)"/>
    <path id="Rectangle_21557" d="M0 0H6V6H0z" class="cls-2" transform="translate(96.79 90.864)"/>
    <path id="Rectangle_21558" d="M0 0H5V6H0z" class="cls-2" transform="translate(108.65 90.864)"/>
    <path id="Rectangle_21559" d="M0 0H7V6H0z" class="cls-2" transform="translate(113.571 90.864)"/>
    <path id="Rectangle_21560" d="M0 0H5V6H0z" class="cls-2" transform="translate(120.503 90.864)"/>
    <path id="Rectangle_21561" d="M0 0H7V6H0z" class="cls-2" transform="translate(125.422 90.864)"/>
    <path id="Rectangle_21562" d="M0 0H5V6H0z" class="cls-2" transform="translate(132.356 90.864)"/>
    <path id="Rectangle_21563" d="M0 0H6V6H0z" class="cls-2" transform="translate(143 90.864)"/>
    <path id="Rectangle_21564" d="M0 0H6V6H0z" class="cls-2" transform="translate(149 90.864)"/>
    <path id="Rectangle_21565" d="M0 0H6V6H0z" class="cls-2" transform="translate(10 96.79)"/>
    <path id="Rectangle_21566" d="M0 0H5V6H0z" class="cls-2" transform="translate(22 96.79)"/>
    <path id="Rectangle_21567" d="M0 0H5V6H0z" class="cls-2" transform="translate(33.583 96.79)"/>
    <path id="Rectangle_21568" d="M0 0H6V6H0z" class="cls-2" transform="translate(50.37 96.79)"/>
    <path id="Rectangle_21569" d="M0 0H6V6H0z" class="cls-2" transform="translate(56.296 96.79)"/>
    <path id="Rectangle_21570" d="M0 0H6V6H0z" class="cls-2" transform="translate(62.222 96.79)"/>
    <path id="Rectangle_21571" d="M0 0H5V6H0z" class="cls-2" transform="translate(74.08 96.79)"/>
    <path id="Rectangle_21572" d="M0 0H6V6H0z" class="cls-2" transform="translate(79.012 96.79)"/>
    <path id="Rectangle_21573" d="M0 0H6V6H0z" class="cls-2" transform="translate(90.864 96.79)"/>
    <path id="Rectangle_21574" d="M0 0H6V6H0z" class="cls-2" transform="translate(102.716 96.79)"/>
    <path id="Rectangle_21575" d="M0 0H5V6H0z" class="cls-2" transform="translate(108.65 96.79)"/>
    <path id="Rectangle_21576" d="M0 0H5V6H0z" class="cls-2" transform="translate(120.503 96.79)"/>
    <path id="Rectangle_21577" d="M0 0H5V6H0z" class="cls-2" transform="translate(132.356 96.79)"/>
    <path id="Rectangle_21578" d="M0 0H6V6H0z" class="cls-2" transform="translate(137 96.79)"/>
    <path id="Rectangle_21579" d="M0 0H6V6H0z" class="cls-2" transform="translate(149 96.79)"/>
    <path id="Rectangle_21580" d="M0 0H6V6H0z" class="cls-2" transform="translate(10 102.716)"/>
    <path id="Rectangle_21581" d="M0 0H5V6H0z" class="cls-2" transform="translate(33.583 102.716)"/>
    <path id="Rectangle_21582" d="M0 0H5V6H0z" class="cls-2" transform="translate(45.436 102.716)"/>
    <path id="Rectangle_21583" d="M0 0H6V6H0z" class="cls-2" transform="translate(56.296 102.716)"/>
    <path id="Rectangle_21584" d="M0 0H6V6H0z" class="cls-2" transform="translate(84.938 102.716)"/>
    <path id="Rectangle_21585" d="M0 0H6V6H0z" class="cls-2" transform="translate(90.864 102.716)"/>
    <path id="Rectangle_21586" d="M0 0H6V6H0z" class="cls-2" transform="translate(96.79 102.716)"/>
    <path id="Rectangle_21587" d="M0 0H6V6H0z" class="cls-2" transform="translate(102.716 102.716)"/>
    <path id="Rectangle_21588" d="M0 0H5V6H0z" class="cls-2" transform="translate(108.65 102.716)"/>
    <path id="Rectangle_21589" d="M0 0H7V6H0z" class="cls-2" transform="translate(113.571 102.716)"/>
    <path id="Rectangle_21590" d="M0 0H5V6H0z" class="cls-2" transform="translate(120.503 102.716)"/>
    <path id="Rectangle_21591" d="M0 0H7V6H0z" class="cls-2" transform="translate(125.422 102.716)"/>
    <path id="Rectangle_21592" d="M0 0H6V6H0z" class="cls-2" transform="translate(137 102.716)"/>
    <path id="Rectangle_21593" d="M0 0H6V5H0z" class="cls-2" transform="translate(56.296 108.65)"/>
    <path id="Rectangle_21594" d="M0 0H6V5H0z" class="cls-2" transform="translate(62.222 108.65)"/>
    <path id="Rectangle_21595" d="M0 0H6V5H0z" class="cls-2" transform="translate(68.148 108.65)"/>
    <path id="Rectangle_21596" d="M0 0H5V5H0z" class="cls-2" transform="translate(74.08 108.65)"/>
    <path id="Rectangle_21597" d="M0 0H6V5H0z" class="cls-2" transform="translate(79.012 108.65)"/>
    <path id="Rectangle_21598" d="M0 0H6V5H0z" class="cls-2" transform="translate(84.938 108.65)"/>
    <path id="Rectangle_21599" d="M0 0H6V5H0z" class="cls-2" transform="translate(96.79 108.65)"/>
    <path id="Rectangle_21600" d="M0 0H6V5H0z" class="cls-2" transform="translate(102.716 108.65)"/>
    <path id="Rectangle_21601" d="M0 0H7V5H0z" class="cls-2" transform="translate(125.422 108.65)"/>
    <path id="Rectangle_21602" d="M0 0H6V7H0z" class="cls-2" transform="translate(10 113.571)"/>
    <path id="Rectangle_21603" d="M0 0H6V7H0z" class="cls-2" transform="translate(16 113.571)"/>
    <path id="Rectangle_21604" d="M0 0H5V7H0z" class="cls-2" transform="translate(22 113.571)"/>
    <path id="Rectangle_21605" d="M0 0H7V7H0z" class="cls-2" transform="translate(26.665 113.571)"/>
    <path id="Rectangle_21606" d="M0 0H5V7H0z" class="cls-2" transform="translate(33.583 113.571)"/>
    <path id="Rectangle_21607" d="M0 0H7V7H0z" class="cls-2" transform="translate(38.516 113.571)"/>
    <path id="Rectangle_21608" d="M0 0H5V7H0z" class="cls-2" transform="translate(45.436 113.571)"/>
    <path id="Rectangle_21609" d="M0 0H6V7H0z" class="cls-2" transform="translate(56.296 113.571)"/>
    <path id="Rectangle_21610" d="M0 0H5V7H0z" class="cls-2" transform="translate(74.08 113.571)"/>
    <path id="Rectangle_21611" d="M0 0H6V7H0z" class="cls-2" transform="translate(79.012 113.571)"/>
    <path id="Rectangle_21612" d="M0 0H6V7H0z" class="cls-2" transform="translate(90.864 113.571)"/>
    <path id="Rectangle_21613" d="M0 0H6V7H0z" class="cls-2" transform="translate(102.716 113.571)"/>
    <path id="Rectangle_21614" d="M0 0H7V7H0z" class="cls-2" transform="translate(113.571 113.571)"/>
    <path id="Rectangle_21615" d="M0 0H7V7H0z" class="cls-2" transform="translate(125.422 113.571)"/>
    <path id="Rectangle_21616" d="M0 0H6V7H0z" class="cls-2" transform="translate(149 113.571)"/>
    <path id="Rectangle_21617" d="M0 0H6V5H0z" class="cls-2" transform="translate(10 120.503)"/>
    <path id="Rectangle_21618" d="M0 0H5V5H0z" class="cls-2" transform="translate(45.436 120.503)"/>
    <path id="Rectangle_21619" d="M0 0H6V5H0z" class="cls-2" transform="translate(56.296 120.503)"/>
    <path id="Rectangle_21620" d="M0 0H6V5H0z" class="cls-2" transform="translate(62.222 120.503)"/>
    <path id="Rectangle_21621" d="M0 0H5V5H0z" class="cls-2" transform="translate(74.08 120.503)"/>
    <path id="Rectangle_21622" d="M0 0H6V5H0z" class="cls-2" transform="translate(90.864 120.503)"/>
    <path id="Rectangle_21623" d="M0 0H6V5H0z" class="cls-2" transform="translate(96.79 120.503)"/>
    <path id="Rectangle_21624" d="M0 0H6V5H0z" class="cls-2" transform="translate(102.716 120.503)"/>
    <path id="Rectangle_21625" d="M0 0H7V5H0z" class="cls-2" transform="translate(125.422 120.503)"/>
    <path id="Rectangle_21626" d="M0 0H6V5H0z" class="cls-2" transform="translate(149 120.503)"/>
    <path id="Rectangle_21627" d="M0 0H6V7H0z" class="cls-2" transform="translate(10 125.422)"/>
    <path id="Rectangle_21628" d="M0 0H5V7H0z" class="cls-2" transform="translate(22 125.422)"/>
    <path id="Rectangle_21629" d="M0 0H7V7H0z" class="cls-2" transform="translate(26.665 125.422)"/>
    <path id="Rectangle_21630" d="M0 0H5V7H0z" class="cls-2" transform="translate(33.583 125.422)"/>
    <path id="Rectangle_21631" d="M0 0H5V7H0z" class="cls-2" transform="translate(45.436 125.422)"/>
    <path id="Rectangle_21632" d="M0 0H5V7H0z" class="cls-2" transform="translate(74.08 125.422)"/>
    <path id="Rectangle_21633" d="M0 0H6V7H0z" class="cls-2" transform="translate(79.012 125.422)"/>
    <path id="Rectangle_21634" d="M0 0H6V7H0z" class="cls-2" transform="translate(84.938 125.422)"/>
    <path id="Rectangle_21635" d="M0 0H6V7H0z" class="cls-2" transform="translate(96.79 125.422)"/>
    <path id="Rectangle_21636" d="M0 0H6V7H0z" class="cls-2" transform="translate(102.716 125.422)"/>
    <path id="Rectangle_21637" d="M0 0H5V7H0z" class="cls-2" transform="translate(108.65 125.422)"/>
    <path id="Rectangle_21638" d="M0 0H7V7H0z" class="cls-2" transform="translate(113.571 125.422)"/>
    <path id="Rectangle_21639" d="M0 0H5V7H0z" class="cls-2" transform="translate(120.503 125.422)"/>
    <path id="Rectangle_21640" d="M0 0H7V7H0z" class="cls-2" transform="translate(125.422 125.422)"/>
    <path id="Rectangle_21641" d="M0 0H6V7H0z" class="cls-2" transform="translate(137 125.422)"/>
    <path id="Rectangle_21642" d="M0 0H6V7H0z" class="cls-2" transform="translate(143 125.422)"/>
    <path id="Rectangle_21643" d="M0 0H6V5H0z" class="cls-2" transform="translate(10 132.356)"/>
    <path id="Rectangle_21644" d="M0 0H5V5H0z" class="cls-2" transform="translate(22 132.356)"/>
    <path id="Rectangle_21645" d="M0 0H7V5H0z" class="cls-2" transform="translate(26.665 132.356)"/>
    <path id="Rectangle_21646" d="M0 0H5V5H0z" class="cls-2" transform="translate(33.583 132.356)"/>
    <path id="Rectangle_21647" d="M0 0H5V5H0z" class="cls-2" transform="translate(45.436 132.356)"/>
    <path id="Rectangle_21648" d="M0 0H6V5H0z" class="cls-2" transform="translate(62.222 132.356)"/>
    <path id="Rectangle_21649" d="M0 0H6V5H0z" class="cls-2" transform="translate(68.148 132.356)"/>
    <path id="Rectangle_21650" d="M0 0H5V5H0z" class="cls-2" transform="translate(74.08 132.356)"/>
    <path id="Rectangle_21651" d="M0 0H6V5H0z" class="cls-2" transform="translate(84.938 132.356)"/>
    <path id="Rectangle_21652" d="M0 0H6V5H0z" class="cls-2" transform="translate(90.864 132.356)"/>
    <path id="Rectangle_21653" d="M0 0H5V5H0z" class="cls-2" transform="translate(108.65 132.356)"/>
    <path id="Rectangle_21654" d="M0 0H7V5H0z" class="cls-2" transform="translate(113.571 132.356)"/>
    <path id="Rectangle_21655" d="M0 0H6V5H0z" class="cls-2" transform="translate(143 132.356)"/>
    <path id="Rectangle_21656" d="M0 0H6V5H0z" class="cls-2" transform="translate(149 132.356)"/>
    <path id="Rectangle_21657" d="M0 0H6V6H0z" class="cls-2" transform="translate(10 137)"/>
    <path id="Rectangle_21658" d="M0 0H5V6H0z" class="cls-2" transform="translate(22 137)"/>
    <path id="Rectangle_21659" d="M0 0H7V6H0z" class="cls-2" transform="translate(26.665 137)"/>
    <path id="Rectangle_21660" d="M0 0H5V6H0z" class="cls-2" transform="translate(33.583 137)"/>
    <path id="Rectangle_21661" d="M0 0H5V6H0z" class="cls-2" transform="translate(45.436 137)"/>
    <path id="Rectangle_21662" d="M0 0H6V6H0z" class="cls-2" transform="translate(62.222 137)"/>
    <path id="Rectangle_21663" d="M0 0H6V6H0z" class="cls-2" transform="translate(79.012 137)"/>
    <path id="Rectangle_21664" d="M0 0H6V6H0z" class="cls-2" transform="translate(84.938 137)"/>
    <path id="Rectangle_21665" d="M0 0H6V6H0z" class="cls-2" transform="translate(90.864 137)"/>
    <path id="Rectangle_21666" d="M0 0H6V6H0z" class="cls-2" transform="translate(102.716 137)"/>
    <path id="Rectangle_21667" d="M0 0H5V6H0z" class="cls-2" transform="translate(132.356 137)"/>
    <path id="Rectangle_21668" d="M0 0H6V6H0z" class="cls-2" transform="translate(137 137)"/>
    <path id="Rectangle_21669" d="M0 0H6V6H0z" class="cls-2" transform="translate(149 137)"/>
    <path id="Rectangle_21670" d="M0 0H6V6H0z" class="cls-2" transform="translate(10 143)"/>
    <path id="Rectangle_21671" d="M0 0H5V6H0z" class="cls-2" transform="translate(45.436 143)"/>
    <path id="Rectangle_21672" d="M0 0H6V6H0z" class="cls-2" transform="translate(56.296 143)"/>
    <path id="Rectangle_21673" d="M0 0H6V6H0z" class="cls-2" transform="translate(62.222 143)"/>
    <path id="Rectangle_21674" d="M0 0H6V6H0z" class="cls-2" transform="translate(68.148 143)"/>
    <path id="Rectangle_21675" d="M0 0H6V6H0z" class="cls-2" transform="translate(90.864 143)"/>
    <path id="Rectangle_21676" d="M0 0H6V6H0z" class="cls-2" transform="translate(102.716 143)"/>
    <path id="Rectangle_21677" d="M0 0H5V6H0z" class="cls-2" transform="translate(108.65 143)"/>
    <path id="Rectangle_21678" d="M0 0H5V6H0z" class="cls-2" transform="translate(120.503 143)"/>
    <path id="Rectangle_21679" d="M0 0H7V6H0z" class="cls-2" transform="translate(125.422 143)"/>
    <path id="Rectangle_21680" d="M0 0H6V6H0z" class="cls-2" transform="translate(149 143)"/>
    <path id="Rectangle_21681" d="M0 0H6V6H0z" class="cls-2" transform="translate(10 149)"/>
    <path id="Rectangle_21682" d="M0 0H6V6H0z" class="cls-2" transform="translate(16 149)"/>
    <path id="Rectangle_21683" d="M0 0H5V6H0z" class="cls-2" transform="translate(22 149)"/>
    <path id="Rectangle_21684" d="M0 0H7V6H0z" class="cls-2" transform="translate(26.665 149)"/>
    <path id="Rectangle_21685" d="M0 0H5V6H0z" class="cls-2" transform="translate(33.583 149)"/>
    <path id="Rectangle_21686" d="M0 0H7V6H0z" class="cls-2" transform="translate(38.516 149)"/>
    <path id="Rectangle_21687" d="M0 0H5V6H0z" class="cls-2" transform="translate(45.436 149)"/>
    <path id="Rectangle_21688" d="M0 0H6V6H0z" class="cls-2" transform="translate(56.296 149)"/>
    <path id="Rectangle_21689" d="M0 0H5V6H0z" class="cls-2" transform="translate(74.08 149)"/>
    <path id="Rectangle_21690" d="M0 0H6V6H0z" class="cls-2" transform="translate(79.012 149)"/>
    <path id="Rectangle_21691" d="M0 0H6V6H0z" class="cls-2" transform="translate(84.938 149)"/>
    <path id="Rectangle_21692" d="M0 0H6V6H0z" class="cls-2" transform="translate(96.79 149)"/>
    <path id="Rectangle_21693" d="M0 0H6V6H0z" class="cls-2" transform="translate(102.716 149)"/>
    <path id="Rectangle_21694" d="M0 0H5V6H0z" class="cls-2" transform="translate(132.356 149)"/>
    <path id="Rectangle_21695" d="M0 0H6V6H0z" class="cls-2" transform="translate(149 149)"/>
</svg>
