<svg xmlns="http://www.w3.org/2000/svg" id="App_store" width="166" height="166" viewBox="0 0 166 166">
    <defs>
        <style>
            .cls-2{fill:#0ec1eb}
        </style>
    </defs>
    <path id="Rectangle_21696" fill="#f2f0f0" d="M0 0H166V166H0z"/>
    <path id="Rectangle_21697" d="M0 0H6V6H0z" class="cls-2" transform="translate(10 10)"/>
    <path id="Rectangle_21698" d="M0 0H6V6H0z" class="cls-2" transform="translate(16 10)"/>
    <path id="Rectangle_21699" d="M0 0H5V6H0z" class="cls-2" transform="translate(22 10)"/>
    <path id="Rectangle_21700" d="M0 0H6V6H0z" class="cls-2" transform="translate(27 10)"/>
    <path id="Rectangle_21701" d="M0 0H6V6H0z" class="cls-2" transform="translate(33 10)"/>
    <path id="Rectangle_21702" d="M0 0H5V6H0z" class="cls-2" transform="translate(39 10)"/>
    <path id="Rectangle_21703" d="M0 0H7V6H0z" class="cls-2" transform="translate(44 10)"/>
    <path id="Rectangle_21704" d="M0 0H7V6H0z" class="cls-2" transform="translate(56 10)"/>
    <path id="Rectangle_21705" d="M0 0H5V6H0z" class="cls-2" transform="translate(63 10)"/>
    <path id="Rectangle_21706" d="M0 0H5V6H0z" class="cls-2" transform="translate(68 10)"/>
    <path id="Rectangle_21707" d="M0 0H7V6H0z" class="cls-2" transform="translate(73 10)"/>
    <path id="Rectangle_21708" d="M0 0H5V6H0z" class="cls-2" transform="translate(92 10)"/>
    <path id="Rectangle_21709" d="M0 0H7V6H0z" class="cls-2" transform="translate(102 10)"/>
    <path id="Rectangle_21710" d="M0 0H6V6H0z" class="cls-2" transform="translate(114 10)"/>
    <path id="Rectangle_21711" d="M0 0H6V6H0z" class="cls-2" transform="translate(120 10)"/>
    <path id="Rectangle_21712" d="M0 0H6V6H0z" class="cls-2" transform="translate(126 10)"/>
    <path id="Rectangle_21713" d="M0 0H6V6H0z" class="cls-2" transform="translate(132 10)"/>
    <path id="Rectangle_21714" d="M0 0H5V6H0z" class="cls-2" transform="translate(138 10)"/>
    <path id="Rectangle_21715" d="M0 0H6V6H0z" class="cls-2" transform="translate(143 10)"/>
    <path id="Rectangle_21716" d="M0 0H6V6H0z" class="cls-2" transform="translate(149 10)"/>
    <path id="Rectangle_21717" d="M0 0H6V6H0z" class="cls-2" transform="translate(10 16)"/>
    <path id="Rectangle_21718" d="M0 0H7V6H0z" class="cls-2" transform="translate(44 16)"/>
    <path id="Rectangle_21719" d="M0 0H7V6H0z" class="cls-2" transform="translate(73 16)"/>
    <path id="Rectangle_21720" d="M0 0H5V6H0z" class="cls-2" transform="translate(80 16)"/>
    <path id="Rectangle_21721" d="M0 0H7V6H0z" class="cls-2" transform="translate(102 16)"/>
    <path id="Rectangle_21722" d="M0 0H6V6H0z" class="cls-2" transform="translate(114 16)"/>
    <path id="Rectangle_21723" d="M0 0H6V6H0z" class="cls-2" transform="translate(149 16)"/>
    <path id="Rectangle_21724" d="M0 0H6V5H0z" class="cls-2" transform="translate(10 22)"/>
    <path id="Rectangle_21725" d="M0 0H5V5H0z" class="cls-2" transform="translate(22 22)"/>
    <path id="Rectangle_21726" d="M0 0H6V5H0z" class="cls-2" transform="translate(27 22)"/>
    <path id="Rectangle_21727" d="M0 0H6V5H0z" class="cls-2" transform="translate(33 22)"/>
    <path id="Rectangle_21728" d="M0 0H7V5H0z" class="cls-2" transform="translate(44 22)"/>
    <path id="Rectangle_21729" d="M0 0H5V5H0z" class="cls-2" transform="translate(63 22)"/>
    <path id="Rectangle_21730" d="M0 0H7V5H0z" class="cls-2" transform="translate(73 22)"/>
    <path id="Rectangle_21731" d="M0 0H7V5H0z" class="cls-2" transform="translate(85 22)"/>
    <path id="Rectangle_21732" d="M0 0H5V5H0z" class="cls-2" transform="translate(97 22)"/>
    <path id="Rectangle_21733" d="M0 0H6V5H0z" class="cls-2" transform="translate(114 22)"/>
    <path id="Rectangle_21734" d="M0 0H6V5H0z" class="cls-2" transform="translate(126 22)"/>
    <path id="Rectangle_21735" d="M0 0H6V5H0z" class="cls-2" transform="translate(132 22)"/>
    <path id="Rectangle_21736" d="M0 0H5V5H0z" class="cls-2" transform="translate(138 22)"/>
    <path id="Rectangle_21737" d="M0 0H6V5H0z" class="cls-2" transform="translate(149 22)"/>
    <path id="Rectangle_21738" d="M0 0H6V6H0z" class="cls-2" transform="translate(10 27)"/>
    <path id="Rectangle_21739" d="M0 0H5V6H0z" class="cls-2" transform="translate(22 27)"/>
    <path id="Rectangle_21740" d="M0 0H6V6H0z" class="cls-2" transform="translate(27 27)"/>
    <path id="Rectangle_21741" d="M0 0H6V6H0z" class="cls-2" transform="translate(33 27)"/>
    <path id="Rectangle_21742" d="M0 0H7V6H0z" class="cls-2" transform="translate(44 27)"/>
    <path id="Rectangle_21743" d="M0 0H5V6H0z" class="cls-2" transform="translate(68 27)"/>
    <path id="Rectangle_21744" d="M0 0H7V6H0z" class="cls-2" transform="translate(73 27)"/>
    <path id="Rectangle_21745" d="M0 0H5V6H0z" class="cls-2" transform="translate(80 27)"/>
    <path id="Rectangle_21746" d="M0 0H7V6H0z" class="cls-2" transform="translate(85 27)"/>
    <path id="Rectangle_21747" d="M0 0H7V6H0z" class="cls-2" transform="translate(102 27)"/>
    <path id="Rectangle_21748" d="M0 0H6V6H0z" class="cls-2" transform="translate(114 27)"/>
    <path id="Rectangle_21749" d="M0 0H6V6H0z" class="cls-2" transform="translate(126 27)"/>
    <path id="Rectangle_21750" d="M0 0H6V6H0z" class="cls-2" transform="translate(132 27)"/>
    <path id="Rectangle_21751" d="M0 0H5V6H0z" class="cls-2" transform="translate(138 27)"/>
    <path id="Rectangle_21752" d="M0 0H6V6H0z" class="cls-2" transform="translate(149 27)"/>
    <path id="Rectangle_21753" d="M0 0H6V6H0z" class="cls-2" transform="translate(10 33)"/>
    <path id="Rectangle_21754" d="M0 0H5V6H0z" class="cls-2" transform="translate(22 33)"/>
    <path id="Rectangle_21755" d="M0 0H6V6H0z" class="cls-2" transform="translate(27 33)"/>
    <path id="Rectangle_21756" d="M0 0H6V6H0z" class="cls-2" transform="translate(33 33)"/>
    <path id="Rectangle_21757" d="M0 0H7V6H0z" class="cls-2" transform="translate(44 33)"/>
    <path id="Rectangle_21758" d="M0 0H5V6H0z" class="cls-2" transform="translate(68 33)"/>
    <path id="Rectangle_21759" d="M0 0H7V6H0z" class="cls-2" transform="translate(73 33)"/>
    <path id="Rectangle_21760" d="M0 0H5V6H0z" class="cls-2" transform="translate(80 33)"/>
    <path id="Rectangle_21761" d="M0 0H7V6H0z" class="cls-2" transform="translate(85 33)"/>
    <path id="Rectangle_21762" d="M0 0H5V6H0z" class="cls-2" transform="translate(92 33)"/>
    <path id="Rectangle_21763" d="M0 0H7V6H0z" class="cls-2" transform="translate(102 33)"/>
    <path id="Rectangle_21764" d="M0 0H6V6H0z" class="cls-2" transform="translate(114 33)"/>
    <path id="Rectangle_21765" d="M0 0H6V6H0z" class="cls-2" transform="translate(126 33)"/>
    <path id="Rectangle_21766" d="M0 0H6V6H0z" class="cls-2" transform="translate(132 33)"/>
    <path id="Rectangle_21767" d="M0 0H5V6H0z" class="cls-2" transform="translate(138 33)"/>
    <path id="Rectangle_21768" d="M0 0H6V6H0z" class="cls-2" transform="translate(149 33)"/>
    <path id="Rectangle_21769" d="M0 0H6V5H0z" class="cls-2" transform="translate(10 39)"/>
    <path id="Rectangle_21770" d="M0 0H7V5H0z" class="cls-2" transform="translate(44 39)"/>
    <path id="Rectangle_21771" d="M0 0H5V5H0z" class="cls-2" transform="translate(63 39)"/>
    <path id="Rectangle_21772" d="M0 0H7V5H0z" class="cls-2" transform="translate(73 39)"/>
    <path id="Rectangle_21773" d="M0 0H5V5H0z" class="cls-2" transform="translate(80 39)"/>
    <path id="Rectangle_21774" d="M0 0H5V5H0z" class="cls-2" transform="translate(92 39)"/>
    <path id="Rectangle_21775" d="M0 0H6V5H0z" class="cls-2" transform="translate(114 39)"/>
    <path id="Rectangle_21776" d="M0 0H6V5H0z" class="cls-2" transform="translate(149 39)"/>
    <path id="Rectangle_21777" d="M0 0H6V7H0z" class="cls-2" transform="translate(10 44)"/>
    <path id="Rectangle_21778" d="M0 0H6V7H0z" class="cls-2" transform="translate(16 44)"/>
    <path id="Rectangle_21779" d="M0 0H5V7H0z" class="cls-2" transform="translate(22 44)"/>
    <path id="Rectangle_21780" d="M0 0H6V7H0z" class="cls-2" transform="translate(27 44)"/>
    <path id="Rectangle_21781" d="M0 0H6V7H0z" class="cls-2" transform="translate(33 44)"/>
    <path id="Rectangle_21782" d="M0 0H5V7H0z" class="cls-2" transform="translate(39 44)"/>
    <path id="Rectangle_21783" d="M0 0H7V7H0z" class="cls-2" transform="translate(44 44)"/>
    <path id="Rectangle_21784" d="M0 0H7V7H0z" class="cls-2" transform="translate(56 44)"/>
    <path id="Rectangle_21785" d="M0 0H5V7H0z" class="cls-2" transform="translate(68 44)"/>
    <path id="Rectangle_21786" d="M0 0H5V7H0z" class="cls-2" transform="translate(80 44)"/>
    <path id="Rectangle_21787" d="M0 0H5V7H0z" class="cls-2" transform="translate(92 44)"/>
    <path id="Rectangle_21788" d="M0 0H7V7H0z" class="cls-2" transform="translate(102 44)"/>
    <path id="Rectangle_21789" d="M0 0H6V7H0z" class="cls-2" transform="translate(114 44)"/>
    <path id="Rectangle_21790" d="M0 0H6V7H0z" class="cls-2" transform="translate(120 44)"/>
    <path id="Rectangle_21791" d="M0 0H6V7H0z" class="cls-2" transform="translate(126 44)"/>
    <path id="Rectangle_21792" d="M0 0H6V7H0z" class="cls-2" transform="translate(132 44)"/>
    <path id="Rectangle_21793" d="M0 0H5V7H0z" class="cls-2" transform="translate(138 44)"/>
    <path id="Rectangle_21794" d="M0 0H6V7H0z" class="cls-2" transform="translate(143 44)"/>
    <path id="Rectangle_21795" d="M0 0H6V7H0z" class="cls-2" transform="translate(149 44)"/>
    <path id="Rectangle_21796" d="M0 0H7V5H0z" class="cls-2" transform="translate(56 51)"/>
    <path id="Rectangle_21797" d="M0 0H5V5H0z" class="cls-2" transform="translate(63 51)"/>
    <path id="Rectangle_21798" d="M0 0H5V5H0z" class="cls-2" transform="translate(80 51)"/>
    <path id="Rectangle_21799" d="M0 0H7V5H0z" class="cls-2" transform="translate(85 51)"/>
    <path id="Rectangle_21800" d="M0 0H5V5H0z" class="cls-2" transform="translate(92 51)"/>
    <path id="Rectangle_21801" d="M0 0H5V5H0z" class="cls-2" transform="translate(97 51)"/>
    <path id="Rectangle_21802" d="M0 0H7V5H0z" class="cls-2" transform="translate(102 51)"/>
    <path id="Rectangle_21803" d="M0 0H6V7H0z" class="cls-2" transform="translate(10 56)"/>
    <path id="Rectangle_21804" d="M0 0H6V7H0z" class="cls-2" transform="translate(16 56)"/>
    <path id="Rectangle_21805" d="M0 0H6V7H0z" class="cls-2" transform="translate(27 56)"/>
    <path id="Rectangle_21806" d="M0 0H6V7H0z" class="cls-2" transform="translate(33 56)"/>
    <path id="Rectangle_21807" d="M0 0H7V7H0z" class="cls-2" transform="translate(44 56)"/>
    <path id="Rectangle_21808" d="M0 0H5V7H0z" class="cls-2" transform="translate(63 56)"/>
    <path id="Rectangle_21809" d="M0 0H5V7H0z" class="cls-2" transform="translate(92 56)"/>
    <path id="Rectangle_21810" d="M0 0H5V7H0z" class="cls-2" transform="translate(97 56)"/>
    <path id="Rectangle_21811" d="M0 0H7V7H0z" class="cls-2" transform="translate(102 56)"/>
    <path id="Rectangle_21812" d="M0 0H6V7H0z" class="cls-2" transform="translate(114 56)"/>
    <path id="Rectangle_21813" d="M0 0H6V7H0z" class="cls-2" transform="translate(149 56)"/>
    <path id="Rectangle_21814" d="M0 0H6V5H0z" class="cls-2" transform="translate(16 63)"/>
    <path id="Rectangle_21815" d="M0 0H5V5H0z" class="cls-2" transform="translate(22 63)"/>
    <path id="Rectangle_21816" d="M0 0H6V5H0z" class="cls-2" transform="translate(27 63)"/>
    <path id="Rectangle_21817" d="M0 0H6V5H0z" class="cls-2" transform="translate(33 63)"/>
    <path id="Rectangle_21818" d="M0 0H5V5H0z" class="cls-2" transform="translate(39 63)"/>
    <path id="Rectangle_21819" d="M0 0H7V5H0z" class="cls-2" transform="translate(56 63)"/>
    <path id="Rectangle_21820" d="M0 0H5V5H0z" class="cls-2" transform="translate(68 63)"/>
    <path id="Rectangle_21821" d="M0 0H7V5H0z" class="cls-2" transform="translate(73 63)"/>
    <path id="Rectangle_21822" d="M0 0H7V5H0z" class="cls-2" transform="translate(85 63)"/>
    <path id="Rectangle_21823" d="M0 0H5V5H0z" class="cls-2" transform="translate(92 63)"/>
    <path id="Rectangle_21824" d="M0 0H5V5H0z" class="cls-2" transform="translate(97 63)"/>
    <path id="Rectangle_21825" d="M0 0H5V5H0z" class="cls-2" transform="translate(109 63)"/>
    <path id="Rectangle_21826" d="M0 0H6V5H0z" class="cls-2" transform="translate(120 63)"/>
    <path id="Rectangle_21827" d="M0 0H6V5H0z" class="cls-2" transform="translate(126 63)"/>
    <path id="Rectangle_21828" d="M0 0H6V5H0z" class="cls-2" transform="translate(132 63)"/>
    <path id="Rectangle_21829" d="M0 0H5V5H0z" class="cls-2" transform="translate(138 63)"/>
    <path id="Rectangle_21830" d="M0 0H6V5H0z" class="cls-2" transform="translate(143 63)"/>
    <path id="Rectangle_21831" d="M0 0H6V5H0z" class="cls-2" transform="translate(10 68)"/>
    <path id="Rectangle_21832" d="M0 0H6V5H0z" class="cls-2" transform="translate(16 68)"/>
    <path id="Rectangle_21833" d="M0 0H5V5H0z" class="cls-2" transform="translate(22 68)"/>
    <path id="Rectangle_21834" d="M0 0H6V5H0z" class="cls-2" transform="translate(33 68)"/>
    <path id="Rectangle_21835" d="M0 0H7V5H0z" class="cls-2" transform="translate(44 68)"/>
    <path id="Rectangle_21836" d="M0 0H7V5H0z" class="cls-2" transform="translate(56 68)"/>
    <path id="Rectangle_21837" d="M0 0H5V5H0z" class="cls-2" transform="translate(63 68)"/>
    <path id="Rectangle_21838" d="M0 0H7V5H0z" class="cls-2" transform="translate(73 68)"/>
    <path id="Rectangle_21839" d="M0 0H5V5H0z" class="cls-2" transform="translate(80 68)"/>
    <path id="Rectangle_21840" d="M0 0H5V5H0z" class="cls-2" transform="translate(92 68)"/>
    <path id="Rectangle_21841" d="M0 0H5V5H0z" class="cls-2" transform="translate(97 68)"/>
    <path id="Rectangle_21842" d="M0 0H7V5H0z" class="cls-2" transform="translate(102 68)"/>
    <path id="Rectangle_21843" d="M0 0H5V5H0z" class="cls-2" transform="translate(109 68)"/>
    <path id="Rectangle_21844" d="M0 0H6V5H0z" class="cls-2" transform="translate(114 68)"/>
    <path id="Rectangle_21845" d="M0 0H6V5H0z" class="cls-2" transform="translate(120 68)"/>
    <path id="Rectangle_21846" d="M0 0H6V5H0z" class="cls-2" transform="translate(126 68)"/>
    <path id="Rectangle_21847" d="M0 0H6V5H0z" class="cls-2" transform="translate(132 68)"/>
    <path id="Rectangle_21848" d="M0 0H6V5H0z" class="cls-2" transform="translate(149 68)"/>
    <path id="Rectangle_21849" d="M0 0H6V7H0z" class="cls-2" transform="translate(27 73)"/>
    <path id="Rectangle_21850" d="M0 0H6V7H0z" class="cls-2" transform="translate(33 73)"/>
    <path id="Rectangle_21851" d="M0 0H5V7H0z" class="cls-2" transform="translate(51 73)"/>
    <path id="Rectangle_21852" d="M0 0H7V7H0z" class="cls-2" transform="translate(56 73)"/>
    <path id="Rectangle_21853" d="M0 0H7V7H0z" class="cls-2" transform="translate(73 73)"/>
    <path id="Rectangle_21854" d="M0 0H5V7H0z" class="cls-2" transform="translate(92 73)"/>
    <path id="Rectangle_21855" d="M0 0H7V7H0z" class="cls-2" transform="translate(102 73)"/>
    <path id="Rectangle_21856" d="M0 0H5V7H0z" class="cls-2" transform="translate(109 73)"/>
    <path id="Rectangle_21857" d="M0 0H6V7H0z" class="cls-2" transform="translate(132 73)"/>
    <path id="Rectangle_21858" d="M0 0H5V7H0z" class="cls-2" transform="translate(138 73)"/>
    <path id="Rectangle_21859" d="M0 0H6V7H0z" class="cls-2" transform="translate(143 73)"/>
    <path id="Rectangle_21860" d="M0 0H6V7H0z" class="cls-2" transform="translate(149 73)"/>
    <path id="Rectangle_21861" d="M0 0H6V5H0z" class="cls-2" transform="translate(27 80)"/>
    <path id="Rectangle_21862" d="M0 0H5V5H0z" class="cls-2" transform="translate(39 80)"/>
    <path id="Rectangle_21863" d="M0 0H7V5H0z" class="cls-2" transform="translate(44 80)"/>
    <path id="Rectangle_21864" d="M0 0H5V5H0z" class="cls-2" transform="translate(51 80)"/>
    <path id="Rectangle_21865" d="M0 0H7V5H0z" class="cls-2" transform="translate(56 80)"/>
    <path id="Rectangle_21866" d="M0 0H5V5H0z" class="cls-2" transform="translate(63 80)"/>
    <path id="Rectangle_21867" d="M0 0H5V5H0z" class="cls-2" transform="translate(68 80)"/>
    <path id="Rectangle_21868" d="M0 0H7V5H0z" class="cls-2" transform="translate(73 80)"/>
    <path id="Rectangle_21869" d="M0 0H5V5H0z" class="cls-2" transform="translate(80 80)"/>
    <path id="Rectangle_21870" d="M0 0H5V5H0z" class="cls-2" transform="translate(97 80)"/>
    <path id="Rectangle_21871" d="M0 0H7V5H0z" class="cls-2" transform="translate(102 80)"/>
    <path id="Rectangle_21872" d="M0 0H6V5H0z" class="cls-2" transform="translate(114 80)"/>
    <path id="Rectangle_21873" d="M0 0H6V5H0z" class="cls-2" transform="translate(149 80)"/>
    <path id="Rectangle_21874" d="M0 0H6V7H0z" class="cls-2" transform="translate(10 85)"/>
    <path id="Rectangle_21875" d="M0 0H6V7H0z" class="cls-2" transform="translate(16 85)"/>
    <path id="Rectangle_21876" d="M0 0H5V7H0z" class="cls-2" transform="translate(22 85)"/>
    <path id="Rectangle_21877" d="M0 0H6V7H0z" class="cls-2" transform="translate(27 85)"/>
    <path id="Rectangle_21878" d="M0 0H6V7H0z" class="cls-2" transform="translate(33 85)"/>
    <path id="Rectangle_21879" d="M0 0H5V7H0z" class="cls-2" transform="translate(51 85)"/>
    <path id="Rectangle_21880" d="M0 0H7V7H0z" class="cls-2" transform="translate(56 85)"/>
    <path id="Rectangle_21881" d="M0 0H5V7H0z" class="cls-2" transform="translate(63 85)"/>
    <path id="Rectangle_21882" d="M0 0H5V7H0z" class="cls-2" transform="translate(68 85)"/>
    <path id="Rectangle_21883" d="M0 0H7V7H0z" class="cls-2" transform="translate(73 85)"/>
    <path id="Rectangle_21884" d="M0 0H5V7H0z" class="cls-2" transform="translate(92 85)"/>
    <path id="Rectangle_21885" d="M0 0H5V7H0z" class="cls-2" transform="translate(97 85)"/>
    <path id="Rectangle_21886" d="M0 0H7V7H0z" class="cls-2" transform="translate(102 85)"/>
    <path id="Rectangle_21887" d="M0 0H6V7H0z" class="cls-2" transform="translate(126 85)"/>
    <path id="Rectangle_21888" d="M0 0H6V7H0z" class="cls-2" transform="translate(143 85)"/>
    <path id="Rectangle_21889" d="M0 0H6V5H0z" class="cls-2" transform="translate(10 92)"/>
    <path id="Rectangle_21890" d="M0 0H6V5H0z" class="cls-2" transform="translate(16 92)"/>
    <path id="Rectangle_21891" d="M0 0H5V5H0z" class="cls-2" transform="translate(22 92)"/>
    <path id="Rectangle_21892" d="M0 0H6V5H0z" class="cls-2" transform="translate(33 92)"/>
    <path id="Rectangle_21893" d="M0 0H5V5H0z" class="cls-2" transform="translate(39 92)"/>
    <path id="Rectangle_21894" d="M0 0H7V5H0z" class="cls-2" transform="translate(44 92)"/>
    <path id="Rectangle_21895" d="M0 0H7V5H0z" class="cls-2" transform="translate(56 92)"/>
    <path id="Rectangle_21896" d="M0 0H5V5H0z" class="cls-2" transform="translate(63 92)"/>
    <path id="Rectangle_21897" d="M0 0H5V5H0z" class="cls-2" transform="translate(80 92)"/>
    <path id="Rectangle_21898" d="M0 0H5V5H0z" class="cls-2" transform="translate(92 92)"/>
    <path id="Rectangle_21899" d="M0 0H5V5H0z" class="cls-2" transform="translate(97 92)"/>
    <path id="Rectangle_21900" d="M0 0H7V5H0z" class="cls-2" transform="translate(102 92)"/>
    <path id="Rectangle_21901" d="M0 0H5V5H0z" class="cls-2" transform="translate(109 92)"/>
    <path id="Rectangle_21902" d="M0 0H6V5H0z" class="cls-2" transform="translate(114 92)"/>
    <path id="Rectangle_21903" d="M0 0H6V5H0z" class="cls-2" transform="translate(126 92)"/>
    <path id="Rectangle_21904" d="M0 0H6V5H0z" class="cls-2" transform="translate(132 92)"/>
    <path id="Rectangle_21905" d="M0 0H5V5H0z" class="cls-2" transform="translate(138 92)"/>
    <path id="Rectangle_21906" d="M0 0H6V5H0z" class="cls-2" transform="translate(143 92)"/>
    <path id="Rectangle_21907" d="M0 0H6V5H0z" class="cls-2" transform="translate(149 92)"/>
    <path id="Rectangle_21908" d="M0 0H6V5H0z" class="cls-2" transform="translate(10 97)"/>
    <path id="Rectangle_21909" d="M0 0H5V5H0z" class="cls-2" transform="translate(22 97)"/>
    <path id="Rectangle_21910" d="M0 0H6V5H0z" class="cls-2" transform="translate(33 97)"/>
    <path id="Rectangle_21911" d="M0 0H5V5H0z" class="cls-2" transform="translate(39 97)"/>
    <path id="Rectangle_21912" d="M0 0H7V5H0z" class="cls-2" transform="translate(56 97)"/>
    <path id="Rectangle_21913" d="M0 0H5V5H0z" class="cls-2" transform="translate(63 97)"/>
    <path id="Rectangle_21914" d="M0 0H7V5H0z" class="cls-2" transform="translate(73 97)"/>
    <path id="Rectangle_21915" d="M0 0H5V5H0z" class="cls-2" transform="translate(92 97)"/>
    <path id="Rectangle_21916" d="M0 0H7V5H0z" class="cls-2" transform="translate(102 97)"/>
    <path id="Rectangle_21917" d="M0 0H5V5H0z" class="cls-2" transform="translate(109 97)"/>
    <path id="Rectangle_21918" d="M0 0H6V5H0z" class="cls-2" transform="translate(120 97)"/>
    <path id="Rectangle_21919" d="M0 0H6V5H0z" class="cls-2" transform="translate(132 97)"/>
    <path id="Rectangle_21920" d="M0 0H5V5H0z" class="cls-2" transform="translate(138 97)"/>
    <path id="Rectangle_21921" d="M0 0H6V5H0z" class="cls-2" transform="translate(149 97)"/>
    <path id="Rectangle_21922" d="M0 0H6V7H0z" class="cls-2" transform="translate(10 102)"/>
    <path id="Rectangle_21923" d="M0 0H6V7H0z" class="cls-2" transform="translate(33 102)"/>
    <path id="Rectangle_21924" d="M0 0H7V7H0z" class="cls-2" transform="translate(44 102)"/>
    <path id="Rectangle_21925" d="M0 0H5V7H0z" class="cls-2" transform="translate(51 102)"/>
    <path id="Rectangle_21926" d="M0 0H7V7H0z" class="cls-2" transform="translate(56 102)"/>
    <path id="Rectangle_21927" d="M0 0H5V7H0z" class="cls-2" transform="translate(68 102)"/>
    <path id="Rectangle_21928" d="M0 0H7V7H0z" class="cls-2" transform="translate(73 102)"/>
    <path id="Rectangle_21929" d="M0 0H7V7H0z" class="cls-2" transform="translate(85 102)"/>
    <path id="Rectangle_21930" d="M0 0H5V7H0z" class="cls-2" transform="translate(97 102)"/>
    <path id="Rectangle_21931" d="M0 0H7V7H0z" class="cls-2" transform="translate(102 102)"/>
    <path id="Rectangle_21932" d="M0 0H5V7H0z" class="cls-2" transform="translate(109 102)"/>
    <path id="Rectangle_21933" d="M0 0H6V7H0z" class="cls-2" transform="translate(114 102)"/>
    <path id="Rectangle_21934" d="M0 0H6V7H0z" class="cls-2" transform="translate(120 102)"/>
    <path id="Rectangle_21935" d="M0 0H6V7H0z" class="cls-2" transform="translate(126 102)"/>
    <path id="Rectangle_21936" d="M0 0H5V7H0z" class="cls-2" transform="translate(138 102)"/>
    <path id="Rectangle_21937" d="M0 0H6V7H0z" class="cls-2" transform="translate(143 102)"/>
    <path id="Rectangle_21938" d="M0 0H7V5H0z" class="cls-2" transform="translate(56 109)"/>
    <path id="Rectangle_21939" d="M0 0H7V5H0z" class="cls-2" transform="translate(85 109)"/>
    <path id="Rectangle_21940" d="M0 0H5V5H0z" class="cls-2" transform="translate(97 109)"/>
    <path id="Rectangle_21941" d="M0 0H7V5H0z" class="cls-2" transform="translate(102 109)"/>
    <path id="Rectangle_21942" d="M0 0H6V5H0z" class="cls-2" transform="translate(126 109)"/>
    <path id="Rectangle_21943" d="M0 0H5V5H0z" class="cls-2" transform="translate(138 109)"/>
    <path id="Rectangle_21944" d="M0 0H6V5H0z" class="cls-2" transform="translate(143 109)"/>
    <path id="Rectangle_21945" d="M0 0H6V6H0z" class="cls-2" transform="translate(10 114)"/>
    <path id="Rectangle_21946" d="M0 0H6V6H0z" class="cls-2" transform="translate(16 114)"/>
    <path id="Rectangle_21947" d="M0 0H5V6H0z" class="cls-2" transform="translate(22 114)"/>
    <path id="Rectangle_21948" d="M0 0H6V6H0z" class="cls-2" transform="translate(27 114)"/>
    <path id="Rectangle_21949" d="M0 0H6V6H0z" class="cls-2" transform="translate(33 114)"/>
    <path id="Rectangle_21950" d="M0 0H5V6H0z" class="cls-2" transform="translate(39 114)"/>
    <path id="Rectangle_21951" d="M0 0H7V6H0z" class="cls-2" transform="translate(44 114)"/>
    <path id="Rectangle_21952" d="M0 0H7V6H0z" class="cls-2" transform="translate(73 114)"/>
    <path id="Rectangle_21953" d="M0 0H5V6H0z" class="cls-2" transform="translate(80 114)"/>
    <path id="Rectangle_21954" d="M0 0H5V6H0z" class="cls-2" transform="translate(92 114)"/>
    <path id="Rectangle_21955" d="M0 0H7V6H0z" class="cls-2" transform="translate(102 114)"/>
    <path id="Rectangle_21956" d="M0 0H6V6H0z" class="cls-2" transform="translate(114 114)"/>
    <path id="Rectangle_21957" d="M0 0H6V6H0z" class="cls-2" transform="translate(126 114)"/>
    <path id="Rectangle_21958" d="M0 0H6V6H0z" class="cls-2" transform="translate(149 114)"/>
    <path id="Rectangle_21959" d="M0 0H6V6H0z" class="cls-2" transform="translate(10 120)"/>
    <path id="Rectangle_21960" d="M0 0H7V6H0z" class="cls-2" transform="translate(44 120)"/>
    <path id="Rectangle_21961" d="M0 0H5V6H0z" class="cls-2" transform="translate(63 120)"/>
    <path id="Rectangle_21962" d="M0 0H7V6H0z" class="cls-2" transform="translate(73 120)"/>
    <path id="Rectangle_21963" d="M0 0H7V6H0z" class="cls-2" transform="translate(85 120)"/>
    <path id="Rectangle_21964" d="M0 0H5V6H0z" class="cls-2" transform="translate(97 120)"/>
    <path id="Rectangle_21965" d="M0 0H7V6H0z" class="cls-2" transform="translate(102 120)"/>
    <path id="Rectangle_21966" d="M0 0H6V6H0z" class="cls-2" transform="translate(126 120)"/>
    <path id="Rectangle_21967" d="M0 0H6V6H0z" class="cls-2" transform="translate(149 120)"/>
    <path id="Rectangle_21968" d="M0 0H6V6H0z" class="cls-2" transform="translate(10 126)"/>
    <path id="Rectangle_21969" d="M0 0H5V6H0z" class="cls-2" transform="translate(22 126)"/>
    <path id="Rectangle_21970" d="M0 0H6V6H0z" class="cls-2" transform="translate(27 126)"/>
    <path id="Rectangle_21971" d="M0 0H6V6H0z" class="cls-2" transform="translate(33 126)"/>
    <path id="Rectangle_21972" d="M0 0H7V6H0z" class="cls-2" transform="translate(44 126)"/>
    <path id="Rectangle_21973" d="M0 0H7V6H0z" class="cls-2" transform="translate(56 126)"/>
    <path id="Rectangle_21974" d="M0 0H5V6H0z" class="cls-2" transform="translate(68 126)"/>
    <path id="Rectangle_21975" d="M0 0H5V6H0z" class="cls-2" transform="translate(97 126)"/>
    <path id="Rectangle_21976" d="M0 0H7V6H0z" class="cls-2" transform="translate(102 126)"/>
    <path id="Rectangle_21977" d="M0 0H5V6H0z" class="cls-2" transform="translate(109 126)"/>
    <path id="Rectangle_21978" d="M0 0H6V6H0z" class="cls-2" transform="translate(114 126)"/>
    <path id="Rectangle_21979" d="M0 0H6V6H0z" class="cls-2" transform="translate(120 126)"/>
    <path id="Rectangle_21980" d="M0 0H6V6H0z" class="cls-2" transform="translate(126 126)"/>
    <path id="Rectangle_21981" d="M0 0H6V6H0z" class="cls-2" transform="translate(143 126)"/>
    <path id="Rectangle_21982" d="M0 0H6V6H0z" class="cls-2" transform="translate(10 132)"/>
    <path id="Rectangle_21983" d="M0 0H5V6H0z" class="cls-2" transform="translate(22 132)"/>
    <path id="Rectangle_21984" d="M0 0H6V6H0z" class="cls-2" transform="translate(27 132)"/>
    <path id="Rectangle_21985" d="M0 0H6V6H0z" class="cls-2" transform="translate(33 132)"/>
    <path id="Rectangle_21986" d="M0 0H7V6H0z" class="cls-2" transform="translate(44 132)"/>
    <path id="Rectangle_21987" d="M0 0H7V6H0z" class="cls-2" transform="translate(56 132)"/>
    <path id="Rectangle_21988" d="M0 0H7V6H0z" class="cls-2" transform="translate(73 132)"/>
    <path id="Rectangle_21989" d="M0 0H5V6H0z" class="cls-2" transform="translate(80 132)"/>
    <path id="Rectangle_21990" d="M0 0H7V6H0z" class="cls-2" transform="translate(85 132)"/>
    <path id="Rectangle_21991" d="M0 0H5V6H0z" class="cls-2" transform="translate(92 132)"/>
    <path id="Rectangle_21992" d="M0 0H5V6H0z" class="cls-2" transform="translate(109 132)"/>
    <path id="Rectangle_21993" d="M0 0H6V6H0z" class="cls-2" transform="translate(114 132)"/>
    <path id="Rectangle_21994" d="M0 0H6V6H0z" class="cls-2" transform="translate(143 132)"/>
    <path id="Rectangle_21995" d="M0 0H6V6H0z" class="cls-2" transform="translate(149 132)"/>
    <path id="Rectangle_21996" d="M0 0H6V5H0z" class="cls-2" transform="translate(10 138)"/>
    <path id="Rectangle_21997" d="M0 0H5V5H0z" class="cls-2" transform="translate(22 138)"/>
    <path id="Rectangle_21998" d="M0 0H6V5H0z" class="cls-2" transform="translate(27 138)"/>
    <path id="Rectangle_21999" d="M0 0H6V5H0z" class="cls-2" transform="translate(33 138)"/>
    <path id="Rectangle_22000" d="M0 0H7V5H0z" class="cls-2" transform="translate(44 138)"/>
    <path id="Rectangle_22001" d="M0 0H5V5H0z" class="cls-2" transform="translate(63 138)"/>
    <path id="Rectangle_22002" d="M0 0H5V5H0z" class="cls-2" transform="translate(68 138)"/>
    <path id="Rectangle_22003" d="M0 0H7V5H0z" class="cls-2" transform="translate(73 138)"/>
    <path id="Rectangle_22004" d="M0 0H7V5H0z" class="cls-2" transform="translate(85 138)"/>
    <path id="Rectangle_22005" d="M0 0H7V5H0z" class="cls-2" transform="translate(102 138)"/>
    <path id="Rectangle_22006" d="M0 0H5V5H0z" class="cls-2" transform="translate(109 138)"/>
    <path id="Rectangle_22007" d="M0 0H6V5H0z" class="cls-2" transform="translate(126 138)"/>
    <path id="Rectangle_22008" d="M0 0H6V5H0z" class="cls-2" transform="translate(132 138)"/>
    <path id="Rectangle_22009" d="M0 0H5V5H0z" class="cls-2" transform="translate(138 138)"/>
    <path id="Rectangle_22010" d="M0 0H6V5H0z" class="cls-2" transform="translate(143 138)"/>
    <path id="Rectangle_22011" d="M0 0H6V5H0z" class="cls-2" transform="translate(149 138)"/>
    <path id="Rectangle_22012" d="M0 0H6V6H0z" class="cls-2" transform="translate(10 143)"/>
    <path id="Rectangle_22013" d="M0 0H7V6H0z" class="cls-2" transform="translate(44 143)"/>
    <path id="Rectangle_22014" d="M0 0H7V6H0z" class="cls-2" transform="translate(56 143)"/>
    <path id="Rectangle_22015" d="M0 0H5V6H0z" class="cls-2" transform="translate(63 143)"/>
    <path id="Rectangle_22016" d="M0 0H7V6H0z" class="cls-2" transform="translate(73 143)"/>
    <path id="Rectangle_22017" d="M0 0H5V6H0z" class="cls-2" transform="translate(80 143)"/>
    <path id="Rectangle_22018" d="M0 0H5V6H0z" class="cls-2" transform="translate(92 143)"/>
    <path id="Rectangle_22019" d="M0 0H6V6H0z" class="cls-2" transform="translate(120 143)"/>
    <path id="Rectangle_22020" d="M0 0H6V6H0z" class="cls-2" transform="translate(126 143)"/>
    <path id="Rectangle_22021" d="M0 0H5V6H0z" class="cls-2" transform="translate(138 143)"/>
    <path id="Rectangle_22022" d="M0 0H6V6H0z" class="cls-2" transform="translate(143 143)"/>
    <path id="Rectangle_22023" d="M0 0H6V6H0z" class="cls-2" transform="translate(149 143)"/>
    <path id="Rectangle_22024" d="M0 0H6V6H0z" class="cls-2" transform="translate(10 149)"/>
    <path id="Rectangle_22025" d="M0 0H6V6H0z" class="cls-2" transform="translate(16 149)"/>
    <path id="Rectangle_22026" d="M0 0H5V6H0z" class="cls-2" transform="translate(22 149)"/>
    <path id="Rectangle_22027" d="M0 0H6V6H0z" class="cls-2" transform="translate(27 149)"/>
    <path id="Rectangle_22028" d="M0 0H6V6H0z" class="cls-2" transform="translate(33 149)"/>
    <path id="Rectangle_22029" d="M0 0H5V6H0z" class="cls-2" transform="translate(39 149)"/>
    <path id="Rectangle_22030" d="M0 0H7V6H0z" class="cls-2" transform="translate(44 149)"/>
    <path id="Rectangle_22031" d="M0 0H7V6H0z" class="cls-2" transform="translate(56 149)"/>
    <path id="Rectangle_22032" d="M0 0H5V6H0z" class="cls-2" transform="translate(68 149)"/>
    <path id="Rectangle_22033" d="M0 0H5V6H0z" class="cls-2" transform="translate(97 149)"/>
    <path id="Rectangle_22034" d="M0 0H7V6H0z" class="cls-2" transform="translate(102 149)"/>
    <path id="Rectangle_22035" d="M0 0H6V6H0z" class="cls-2" transform="translate(132 149)"/>
    <path id="Rectangle_22036" d="M0 0H6V6H0z" class="cls-2" transform="translate(149 149)"/>
</svg>
