<svg xmlns="http://www.w3.org/2000/svg" width="133.05" height="71.42" viewBox="0 0 133.05 71.42">
    <path fill="#f8992d" d="M51.79 110.815c.638-4.937-4.918-12.673-10.218-14.719-2.289-.883-5.172-1.329-7.1.677-1.677 1.74-.837 4.128.126 6.122.816 1.681.178 2.386-1.353 2.988a30.664 30.664 0 0 0-4.485 2.206c-2.8 1.669-5.135 4.276-4.24 7.457 3.847 13.568 26.979-2.492 27.268-4.732" transform="translate(-24.329 -76.52)"/>
    <path fill="#ffd24f" d="M208.737 130.968c-2.451 1.544-3.1 3.652-2.082 6.4.669 1.8 7.157 16.836 16.427 10.072 5.178-3.782-.669-8.1-1.084-8.368-1.4-.932-1.382-1.491.225-2.328 3.061-1.6 12.784-8.21 6.138-11.934-4.412-2.475-16.729 4.345-19.625 6.168" transform="translate(-170.275 -99.731)"/>
    <path fill="#00b6e3" d="M157.08 11.69c-.707-1.673-2.538-8.794-6.1-7.809-3.1.861-5.536 10.988 2.85 25.384 1.805 3.1 4.22 2.943 6.2-.047 3.77-5.679 10.093-23.123 6.581-28.562-2.3-3.555-7.951 8.439-9.531 11.034" transform="translate(-123.655 -0.003)"/>
    <path fill="#b0d23d" fill-rule="evenodd" d="M99.669 206.031c-2.49 2.874-9.071 12.181-11.861 7.738-7.017-11.174 17.411-27.2 19.236-24.278 7.035 10.554 2.532 30.453-3.189 33.252-6.964 3.411-4.777-12.892-4.185-16.712" transform="translate(-74.258 -151.789)"/>
    <path d="M251.336 286.237c1.341.022 3.515.636 3.492 2.056l-.014.778-.885-.016.01-.523c.014-.883-1.507-1.392-2.591-1.41a3.713 3.713 0 0 0-3.764 3.851 3.843 3.843 0 0 0 3.671 4.124 4.3 4.3 0 0 0 3.1-1.276l.523.693a5.006 5.006 0 0 1-3.658 1.467 4.714 4.714 0 0 1-4.619-5.024 4.615 4.615 0 0 1 4.73-4.72m5.275 1.335a.267.267 0 0 0-.288-.3l-.563-.01.012-.79.952.016c.577.01.814.255.8.831l-.126 7.518a.265.265 0 0 0 .29.3h.563l-.014.79-.95-.018c-.577 0-.814-.255-.806-.829zm3.227 2.735a.269.269 0 0 0-.29-.3l-.563-.01.014-.79.952.016c.575.01.814.255.8.8l-.049 3.257c-.018 1.059.14 2 1.442 2.022a2.613 2.613 0 0 0 2.526-2.765l.053-3.229.912.016-.095 5.654a.261.261 0 0 0 .29.3l.561.01-.012.79-.938-.016c-.565-.01-.814-.255-.806-.764v-.308a4.362 4.362 0 0 1 .034-.482h-.018a2.877 2.877 0 0 1-2.646 1.659c-1.594-.026-2.249-.895-2.22-2.65zm8.115-2.538a.266.266 0 0 0-.29-.3l-.563-.01.014-.79.952.018c.575 0 .814.255.8.829l-.041 2.425a5.207 5.207 0 0 1-.036.547h.028a2.454 2.454 0 0 1 2.313-1.248c1.809.03 2.909 1.5 2.875 3.587-.036 2.131-1.333 3.5-3.1 3.474a2.459 2.459 0 0 1-2.19-1.337h-.028a4.994 4.994 0 0 1 .018.549v.592l-.885-.016zm2.9 7.742c1.185.02 2.188-.968 2.218-2.684.028-1.647-.839-2.721-2.086-2.743-1.126-.018-2.2.768-2.23 2.684-.024 1.355.652 2.719 2.1 2.743m4.055-.782h.417a.273.273 0 0 0 .3-.288l.747-7.722 1.823.03 1.88 4.562c.219.553.448 1.282.448 1.282h.026s.255-.719.49-1.266l2.034-4.5 1.823.032.486 7.744a.273.273 0 0 0 .29.3h.415l-.024 1.487-1.515-.026c-.63 0-.839-.282-.883-.926l-.245-4.226a13.355 13.355 0 0 1 0-1.467h-.028a15.294 15.294 0 0 1-.547 1.465l-1.635 3.472-1.42-.024-1.523-3.531q-.286-.736-.5-1.5h-.026a13.7 13.7 0 0 1-.039 1.487l-.379 4.228c-.063.642-.3.906-.926.9l-1.515-.026zM291 292.2h.213v-.055c.016-.987-.365-1.345-1.238-1.359-.306 0-.912.063-.918.438v.362l-1.58-.026.014-.723c.02-1.274 1.819-1.382 2.53-1.367 2.277.04 2.927 1.244 2.9 2.765l-.044 2.546a.271.271 0 0 0 .29.3l.537.01-.026 1.434-1.527-.026c-.63-.012-.865-.363-.857-.766a2.741 2.741 0 0 1 .018-.294h-.028a2.226 2.226 0 0 1-2.083 1.171 2.161 2.161 0 0 1-2.3-2.172c.035-2.143 2.988-2.267 4.1-2.249m-1.367 3.1a1.744 1.744 0 0 0 1.58-1.777v-.162h-.3c-.885-.016-2.293.081-2.309 1.033a.915.915 0 0 0 1.015.9m5.368-6.5a.261.261 0 0 0-.288-.3h-.537l.026-1.448 1.621.028c.63.01.907.3.895.912l-.04 2.4a5.728 5.728 0 0 1-.038.577h.028a2.611 2.611 0 0 1 2.37-1.315c1.529.026 2.37.831 2.342 2.64l-.045 2.666a.27.27 0 0 0 .29.3h.535l-.024 1.436-1.621-.028c-.63-.012-.893-.284-.881-.926l.051-3.136c.014-.831-.2-1.4-1.063-1.412a1.927 1.927 0 0 0-1.874 1.382 3.159 3.159 0 0 0-.121.881l-.053 3.136-1.7-.028zm8.642 2.826a.263.263 0 0 0-.29-.3h-.535l.024-1.448 1.621.028c.63.01.893.3.883.926l-.069 4.195a.265.265 0 0 0 .29.3l.535.01-.024 1.434-1.621-.028c-.63 0-.895-.282-.883-.926zm.154-4.42l1.475.024-.026 1.568-1.475-.026zm3.8 4.487a.263.263 0 0 0-.29-.3l-.537-.01.026-1.448 1.568.028c.592.01.893.3.885.778v.2a1.86 1.86 0 0 1-.032.294h.028a2.627 2.627 0 0 1 2.435-1.382c1.515.024 2.37.829 2.342 2.639l-.043 2.666a.267.267 0 0 0 .288.3h.537l-.026 1.434-1.621-.028c-.644 0-.906-.284-.895-.926l.053-3.136c.014-.829-.2-1.4-1.049-1.41a1.872 1.872 0 0 0-1.86 1.363 2.879 2.879 0 0 0-.15.908l-.051 3.136-1.689-.03zm11.077-1.718a2.19 2.19 0 0 1 1.955.865h.028s-.01-.176 0-.4l.02-1.207a.263.263 0 0 0-.29-.3h-.535l.024-1.448 1.621.028c.63 0 .907.3.9.926l-.122 6.851a.271.271 0 0 0 .29.3h.523l-.024 1.434-1.568-.026c-.618-.01-.841-.308-.833-.711v-.255h-.026a2.372 2.372 0 0 1-2.151 1.076c-1.849-.032-3.018-1.513-2.982-3.63.038-2.172 1.361-3.555 3.16-3.525m1.963 3.6c.018-1.059-.513-2.113-1.653-2.131-.938-.016-1.728.733-1.75 2.087-.022 1.3.646 2.155 1.651 2.172.885.014 1.726-.614 1.752-2.129m3.932-1.58a.263.263 0 0 0-.29-.3l-.537-.01.026-1.446 1.554.026c.592.01.906.269.9.845v.4a3.1 3.1 0 0 1-.033.428h.026a2.356 2.356 0 0 1 2.2-1.72 2.326 2.326 0 0 1 .306.034l-.028 1.675a3.019 3.019 0 0 0-.415-.034 1.927 1.927 0 0 0-1.888 1.4 4.128 4.128 0 0 0-.164 1.11l-.045 2.708-1.689-.03zm8.5.948h.215v-.055c.016-.976-.367-1.345-1.238-1.359-.308 0-.912.063-.918.44v.359l-1.58-.026.012-.723c.022-1.274 1.819-1.382 2.53-1.367 2.279.04 2.927 1.244 2.9 2.765l-.041 2.548a.267.267 0 0 0 .29.3l.535.01-.024 1.434-1.527-.026c-.632-.01-.867-.363-.859-.764a2.772 2.772 0 0 1 .018-.3h-.028a2.222 2.222 0 0 1-2.084 1.171 2.158 2.158 0 0 1-2.295-2.172c.036-2.143 2.986-2.267 4.1-2.249m-1.365 3.1a1.744 1.744 0 0 0 1.58-1.777v-.162h-.3c-.883-.016-2.293.083-2.309 1.033a.916.916 0 0 0 1.017.9" transform="translate(-202.708 -229.708)"/>
</svg>
