<svg xmlns="http://www.w3.org/2000/svg" width="24.002" height="16.087" viewBox="0 0 24.002 16.087">
  <g id="noun_Eye_2279031" transform="translate(-4.961 -18.937)">
    <g id="Group_24382" data-name="Group 24382" transform="translate(4.961 18.937)">
      <path id="Path_22910" data-name="Path 22910" d="M16.953,18.937a.8.8,0,0,0-.791.816v1.174a.8.8,0,1,0,1.6,0V19.753a.8.8,0,0,0-.808-.816Zm-4.4.674a.8.8,0,0,0-.716,1.008l.3,1.141a.8.8,0,1,0,1.549-.408l-.3-1.132A.8.8,0,0,0,12.557,19.612Zm8.7,0a.8.8,0,0,0-.724.608l-.3,1.132a.8.8,0,1,0,1.549.408l.3-1.141a.8.8,0,0,0-.824-1.008ZM8.993,21.236a.8.8,0,0,0-.674,1.2l.575,1.016a.8.8,0,1,0,1.391-.774l-.566-1.024a.8.8,0,0,0-.724-.416Zm15.912,0a.8.8,0,0,0-.7.416l-.566,1.024a.8.8,0,1,0,1.391.774l.575-1.016a.8.8,0,0,0-.7-1.2Zm-7.944,1.474a14.406,14.406,0,0,0-11.2,5.662.8.8,0,0,0,0,.991,14.406,14.406,0,0,0,11.2,5.662,14.406,14.406,0,0,0,11.2-5.662.8.8,0,0,0,0-.991,15.961,15.961,0,0,0-1.191-1.341.8.8,0,1,0-1.132,1.124c.222.224.424.476.633.716a12.7,12.7,0,0,1-9.509,4.555,12.7,12.7,0,0,1-9.509-4.563,12.7,12.7,0,0,1,9.509-4.555A12.251,12.251,0,0,1,24.2,26.739a.8.8,0,1,0,.941-1.291A13.85,13.85,0,0,0,16.962,22.709ZM5.779,23.75A.8.8,0,0,0,5.2,25.116L6,25.948a.8.8,0,0,0,1.149-1.116L6.345,24A.8.8,0,0,0,5.779,23.75Zm22.349,0a.8.8,0,0,0-.55.25l-.808.833a.8.8,0,0,0,1.149,1.116l.808-.833a.8.8,0,0,0-.6-1.366ZM16.962,25.016a3.857,3.857,0,1,0,3.963,3.855A3.921,3.921,0,0,0,16.962,25.016Zm0,1.59A2.263,2.263,0,1,1,14.6,28.871,2.306,2.306,0,0,1,16.962,26.606Z" transform="translate(-4.961 -18.937)" fill="#0ec1eb"/>
    </g>
  </g>
</svg>
